<svg width="30" height="29" viewBox="0 0 30 29" fill="none" xmlns="http://www.w3.org/2000/svg">
<path d="M15.5858 23.3317L22.2843 27.5755C23.1405 28.118 24.2036 27.3112 23.9495 26.3117L22.0142 18.6986C21.9597 18.4866 21.9662 18.2634 22.0328 18.0549C22.0995 17.8464 22.2237 17.6609 22.3911 17.5198L28.3978 12.5202C29.1871 11.8633 28.7797 10.5535 27.7657 10.4876L19.9213 9.97854C19.71 9.96345 19.5073 9.88864 19.3369 9.76283C19.1665 9.63702 19.0353 9.46539 18.9586 9.26792L16.033 1.90041C15.9535 1.69081 15.8121 1.51036 15.6276 1.38303C15.4431 1.25569 15.2242 1.1875 15 1.1875C14.7758 1.1875 14.557 1.25569 14.3724 1.38303C14.1879 1.51036 14.0465 1.69081 13.967 1.90041L11.0414 9.26792C10.9647 9.46539 10.8335 9.63702 10.6631 9.76283C10.4927 9.88864 10.29 9.96345 10.0788 9.97854L2.23433 10.4876C1.2203 10.5535 0.812929 11.8633 1.60219 12.5202L7.60894 17.5198C7.77634 17.6609 7.90051 17.8464 7.96718 18.0549C8.03385 18.2634 8.0403 18.4866 7.98581 18.6986L6.191 25.7589C5.88611 26.9583 7.1618 27.9265 8.18928 27.2755L14.4142 23.3317C14.5892 23.2202 14.7925 23.161 15 23.161C15.2075 23.161 15.4108 23.2202 15.5858 23.3317Z" stroke="#FFBC1F" stroke-linecap="round" stroke-linejoin="round"/>
</svg>
